<?xml version="1.0" encoding="UTF-8" standalone="no"?>
<svg
   id="Layer_1"
   data-name="Layer 1"
   viewBox="0 0 751 399.78405"
   version="1.1"
   sodipodi:docname="leeporterfitnessnew.svg"
   width="751"
   height="399.78406"
   inkscape:version="1.2.2 (732a01da63, 2022-12-09)"
   xmlns:inkscape="http://www.inkscape.org/namespaces/inkscape"
   xmlns:sodipodi="http://sodipodi.sourceforge.net/DTD/sodipodi-0.dtd"
   xmlns="http://www.w3.org/2000/svg"
   xmlns:svg="http://www.w3.org/2000/svg">
  <sodipodi:namedview
     id="namedview35"
     pagecolor="#000000"
     bordercolor="#000000"
     borderopacity="0.25"
     inkscape:showpageshadow="2"
     inkscape:pageopacity="0"
     inkscape:pagecheckerboard="true"
     inkscape:deskcolor="#d1d1d1"
     showgrid="false"
     inkscape:zoom="1.1314606"
     inkscape:cx="434.39426"
     inkscape:cy="124.61768"
     inkscape:window-width="1920"
     inkscape:window-height="1009"
     inkscape:window-x="1912"
     inkscape:window-y="-8"
     inkscape:window-maximized="1"
     inkscape:current-layer="Layer_1" />
  <defs
     id="defs4">
    <style
       id="style2">.cls-1,.cls-2{fill:none;stroke-miterlimit:10;stroke-width:45px;}.cls-1{stroke:#fff;}.cls-2{stroke:#f15a24;stroke-linecap:square;}.cls-3{font-size:66.38px;font-family:Montserrat-ExtraBold, Montserrat;font-weight:800;letter-spacing:0.04em;}.cls-3,.cls-5{fill:#fff;}.cls-4{letter-spacing:0.03em;}</style>
  </defs>
  <polyline
     class="cls-1"
     points="257.34 130.81 377.86 272.74 418.04 238.62"
     id="polyline6"
     style="stroke:#eeeeee;stroke-opacity:1"
     transform="translate(0,-0.71731005)" />
  <path
     class="cls-2"
     d="m 487.38,276.53269 -153.5,-181.77 72.4,-61.48 c 43.76,-37.16 101.85,24.16 56.77,64.46 l -18,15.35"
     id="path8" />
  <text
     class="cls-3"
     transform="scale(0.96953597,1.0314212)"
     id="text14"
     style="font-style:normal;font-variant:normal;font-weight:bold;font-stretch:normal;font-family:Roboto;-inkscape-font-specification:'Roboto Bold';stroke-width:0.969536"
     x="4.3216548"
     y="399.36417" />
  <rect
     class="cls-5"
     x="100.67"
     y="23.992689"
     width="55.02"
     height="284.44"
     rx="12"
     id="rect16"
     style="fill:#eeeeee;fill-opacity:1" />
  <rect
     class="cls-5"
     x="29.26"
     y="70.812691"
     width="55.02"
     height="190.8"
     rx="12"
     id="rect18"
     style="fill:#eeeeee;fill-opacity:1" />
  <path
     class="cls-5"
     d="m 6.09,153.92269 h 17.32 v 25.45 a 0.3,0.3 0 0 1 -0.3,0.3 H 5.87 a 5.87,5.87 0 0 1 -5.87,-5.87 v -13.8 a 6.09,6.09 0 0 1 6.09,-6.08 z"
     id="path20"
     style="fill:#eeeeee;fill-opacity:1" />
  <polygon
     class="cls-5"
     points="246.98,180.39 162.71,180.39 162.71,154.64 225.91,154.64 "
     id="polygon22"
     transform="translate(7.1414825,-0.71731005)"
     style="fill:#eeeeee;fill-opacity:1" />
  <rect
     class="cls-5"
     x="-650.33002"
     y="-308.44269"
     width="55.02"
     height="284.44"
     rx="12"
     transform="scale(-1)"
     id="rect24"
     style="fill:#eeeeee;fill-opacity:1" />
  <rect
     class="cls-5"
     x="-721.73999"
     y="-261.6127"
     width="55.02"
     height="190.8"
     rx="12"
     transform="scale(-1)"
     id="rect26"
     style="fill:#eeeeee;fill-opacity:1" />
  <path
     class="cls-5"
     d="m 744.91,178.51269 h -17.32 v -25.45 a 0.3,0.3 0 0 1 0.3,-0.3 h 17.24 a 5.87,5.87 0 0 1 5.87,5.87 v 13.8 a 6.09,6.09 0 0 1 -6.09,6.08 z"
     id="path28"
     style="fill:#eeeeee;fill-opacity:1" />
  <polygon
     class="cls-5"
     points="504.02,153.47 588.29,153.47 588.29,179.22 525.09,179.22 "
     id="polygon30"
     transform="translate(-8.9055434,0.37635315)"
     style="fill:#eeeeee;fill-opacity:1" />
  <line
     class="cls-1"
     x1="462"
     y1="202.55269"
     x2="495.29999"
     y2="173.23268"
     id="line32"
     style="stroke:#eeeeee;stroke-opacity:1" />
  <text
     xml:space="preserve"
     style="font-style:normal;font-variant:normal;font-weight:bold;font-stretch:normal;font-size:74.6667px;font-family:Roboto;-inkscape-font-specification:'Roboto Bold';fill:#000000"
     x="5.7940965"
     y="399.0549"
     id="text299"><tspan
       sodipodi:role="line"
       id="tspan297"
       x="5.7940965"
       y="399.0549"
       style="font-size:74.6667px;fill:#eeeeee;fill-opacity:1">LEE PORTER FITNESS</tspan></text>
</svg>
